<svg width="62" height="60" viewBox="0 0 62 60" fill="none" xmlns="http://www.w3.org/2000/svg">
<path d="M47.6593 36.4103V22.799C47.6593 22.1974 47.8984 21.6204 48.324 21.1949C48.7496 20.7695 49.3269 20.5305 49.9288 20.5305C50.5307 20.5305 51.1079 20.7695 51.5335 21.1949C51.9592 21.6204 52.1983 22.1974 52.1983 22.799V36.4103C52.1983 37.012 51.9592 37.589 51.5335 38.0145C51.1079 38.4399 50.5307 38.6789 49.9288 38.6789C49.3269 38.6789 48.7496 38.4399 48.324 38.0145C47.8984 37.589 47.6593 37.012 47.6593 36.4103ZM59.0067 15.9934C58.4048 15.9934 57.8276 16.2324 57.402 16.6578C56.9763 17.0833 56.7372 17.6603 56.7372 18.2619V40.9475C56.7372 41.5491 56.9763 42.1261 57.402 42.5516C57.8276 42.977 58.4048 43.216 59.0067 43.216C59.6086 43.216 60.1859 42.977 60.6115 42.5516C61.0371 42.1261 61.2762 41.5491 61.2762 40.9475V18.2619C61.2762 17.6603 61.0371 17.0833 60.6115 16.6578C60.1859 16.2324 59.6086 15.9934 59.0067 15.9934ZM10.7517 3.11934C10.3417 2.69056 9.77997 2.43936 9.1869 2.41956C8.59384 2.39975 8.0166 2.61292 7.57887 3.0134C7.14114 3.41387 6.87773 3.96978 6.84508 4.56204C6.81243 5.15429 7.01314 5.73577 7.40421 6.18189L16.3403 15.9934H4.53898C3.33517 15.9934 2.18066 16.4714 1.32944 17.3223C0.478212 18.1731 0 19.3272 0 20.5305V38.6789C0 39.8822 0.478212 41.0362 1.32944 41.8871C2.18066 42.738 3.33517 43.216 4.53898 43.216H17.39L37.1913 58.6138C37.5892 58.9224 38.0776 59.0918 38.5813 59.0959C38.9247 59.0918 39.2632 59.0144 39.5742 58.869C39.9572 58.6827 40.2801 58.3925 40.5058 58.0314C40.7316 57.6704 40.8511 57.2531 40.8508 56.8273V42.9608L52.794 56.09C53.0066 56.3223 53.2651 56.5078 53.5533 56.6347C53.8414 56.7616 54.1529 56.8272 54.4677 56.8273C55.0339 56.8218 55.5785 56.61 55.9997 56.2318C56.2227 56.0328 56.4037 55.7911 56.5319 55.5211C56.6602 55.2511 56.733 54.9582 56.7463 54.6595C56.7595 54.3609 56.7128 54.0627 56.6089 53.7824C56.5051 53.5021 56.3461 53.2454 56.1415 53.0275L10.7517 3.11934ZM36.9076 25.1243C37.119 25.3579 37.3774 25.5443 37.6658 25.6714C37.9542 25.7984 38.2662 25.8632 38.5813 25.8616C38.8623 25.8698 39.142 25.8216 39.404 25.7198C39.8322 25.5533 40.1997 25.2609 40.4581 24.8812C40.7164 24.5014 40.8533 24.0522 40.8508 23.593V2.38206C40.8496 1.95831 40.7296 1.54338 40.5045 1.18429C40.2794 0.825197 39.9582 0.536304 39.5773 0.350345C39.1963 0.164386 38.7709 0.0887954 38.3492 0.132138C37.9275 0.175481 37.5264 0.336024 37.1913 0.595577L25.8722 9.38622C25.6289 9.58078 25.4277 9.82278 25.2808 10.0975C25.134 10.3722 25.0446 10.6739 25.0181 10.9842C24.9915 11.2946 25.0284 11.6071 25.1265 11.9027C25.2245 12.1983 25.3817 12.471 25.5885 12.704L36.9076 25.1243Z" fill="white"/>
</svg>
