<svg width="76" height="76" viewBox="0 0 76 76" fill="none" xmlns="http://www.w3.org/2000/svg">
<path d="M38 75.5C17.2893 75.5 0.5 58.7107 0.5 38C0.5 17.2893 17.2893 0.5 38 0.5C58.7107 0.5 75.5 17.2893 75.5 38C75.4773 58.7013 58.7013 75.4773 38 75.5ZM8 38.645C8.17744 55.1497 21.6542 68.4108 38.1595 68.3225C54.6649 68.2334 67.9983 54.8281 67.9983 38.3225C67.9983 21.8169 54.6649 8.41165 38.1595 8.32249C21.6542 8.23421 8.17744 21.4953 8 38V38.645ZM41.75 56.75H34.25V41.75H19.25V34.25H34.25V19.25H41.75V34.25H56.75V41.75H41.75V56.75Z" fill="white"/>
</svg>
