<svg width="61" height="62" viewBox="0 0 61 62" fill="none" xmlns="http://www.w3.org/2000/svg">
<path fill-rule="evenodd" clip-rule="evenodd" d="M11.8607 3.50818H18.6385V6.89567C18.6385 7.34488 18.817 7.77569 19.1347 8.09333C19.4525 8.41096 19.8835 8.58941 20.3329 8.58941C20.7823 8.58941 21.2133 8.41096 21.5311 8.09333C21.8488 7.77569 22.0273 7.34488 22.0273 6.89567V3.50818H35.5829V6.89567C35.5829 7.34488 35.7614 7.77569 36.0792 8.09333C36.397 8.41096 36.8279 8.58941 37.2773 8.58941C37.7267 8.58941 38.1577 8.41096 38.4755 8.09333C38.7933 7.77569 38.9718 7.34488 38.9718 6.89567V3.50818H40.6662C42.0144 3.50818 43.3074 4.04352 44.2607 4.99644C45.214 5.94935 45.7496 7.24179 45.7496 8.58941V49.2393C45.7496 50.5869 45.214 51.8793 44.2607 52.8323C43.3074 53.7852 42.0144 54.3205 40.6662 54.3205H11.8607C10.5125 54.3205 9.21953 53.7852 8.26622 52.8323C7.31291 51.8793 6.77734 50.5869 6.77734 49.2393V8.58941C6.77734 7.24179 7.31291 5.94935 8.26622 4.99644C9.21953 4.04352 10.5125 3.50818 11.8607 3.50818V3.50818ZM15.2496 20.4456C14.8002 20.4456 14.3692 20.6241 14.0514 20.9417C13.7336 21.2593 13.5551 21.6902 13.5551 22.1394C13.5551 22.5886 13.7336 23.0194 14.0514 23.337C14.3692 23.6547 14.8002 23.8331 15.2496 23.8331H37.2773C37.7267 23.8331 38.1577 23.6547 38.4755 23.337C38.7933 23.0194 38.9718 22.5886 38.9718 22.1394C38.9718 21.6902 38.7933 21.2593 38.4755 20.9417C38.1577 20.6241 37.7267 20.4456 37.2773 20.4456H15.2496ZM13.5551 30.6081C13.5551 30.1589 13.7336 29.7281 14.0514 29.4104C14.3692 29.0928 14.8002 28.9143 15.2496 28.9143H27.1107C27.5601 28.9143 27.9911 29.0928 28.3088 29.4104C28.6266 29.7281 28.8051 30.1589 28.8051 30.6081C28.8051 31.0573 28.6266 31.4881 28.3088 31.8058C27.9911 32.1234 27.5601 32.3018 27.1107 32.3018H15.2496C14.8002 32.3018 14.3692 32.1234 14.0514 31.8058C13.7336 31.4881 13.5551 31.0573 13.5551 30.6081ZM15.2496 37.3831C14.8002 37.3831 14.3692 37.5615 14.0514 37.8792C13.7336 38.1968 13.5551 38.6276 13.5551 39.0768C13.5551 39.526 13.7336 39.9568 14.0514 40.2745C14.3692 40.5921 14.8002 40.7706 15.2496 40.7706H33.8885C34.3378 40.7706 34.7688 40.5921 35.0866 40.2745C35.4044 39.9568 35.5829 39.526 35.5829 39.0768C35.5829 38.6276 35.4044 38.1968 35.0866 37.8792C34.7688 37.5615 34.3378 37.3831 33.8885 37.3831H15.2496Z" fill="white"/>
<path fill-rule="evenodd" clip-rule="evenodd" d="M3.38889 6.89558V49.2392C3.38889 51.4852 4.2815 53.6393 5.87035 55.2275C7.4592 56.8157 9.61414 57.7079 11.8611 57.7079H40.6667V61.0954H11.8611C8.71535 61.0954 5.69843 59.8463 3.47404 57.6228C1.24965 55.3993 0 52.3837 0 49.2392V6.89558H3.38889ZM55.9167 6.89558C54.5685 6.89558 53.2755 7.43093 52.3222 8.38384C51.3689 9.33676 50.8333 10.6292 50.8333 11.9768V17.0581H61V11.9768C61 10.6292 60.4644 9.33676 59.5111 8.38384C58.5578 7.43093 57.2648 6.89558 55.9167 6.89558ZM61 20.4455H50.8333V45.8517L55.9167 52.6267L61 45.8517V20.4455ZM33.8889 0.120605C34.3383 0.120605 34.7693 0.299053 35.087 0.616692C35.4048 0.934331 35.5833 1.36514 35.5833 1.81435V8.58933C35.5833 9.03854 35.4048 9.46935 35.087 9.78699C34.7693 10.1046 34.3383 10.2831 33.8889 10.2831C33.4395 10.2831 33.0085 10.1046 32.6907 9.78699C32.373 9.46935 32.1944 9.03854 32.1944 8.58933V1.81435C32.1944 1.36514 32.373 0.934331 32.6907 0.616692C33.0085 0.299053 33.4395 0.120605 33.8889 0.120605V0.120605ZM16.9444 0.120605C17.3938 0.120605 17.8248 0.299053 18.1426 0.616692C18.4604 0.934331 18.6389 1.36514 18.6389 1.81435V8.58933C18.6389 9.03854 18.4604 9.46935 18.1426 9.78699C17.8248 10.1046 17.3938 10.2831 16.9444 10.2831C16.495 10.2831 16.0641 10.1046 15.7463 9.78699C15.4285 9.46935 15.25 9.03854 15.25 8.58933V1.81435C15.25 1.36514 15.4285 0.934331 15.7463 0.616692C16.0641 0.299053 16.495 0.120605 16.9444 0.120605V0.120605Z" fill="white"/>
</svg>
