<svg width="61" height="51" viewBox="0 0 61 51" fill="none" xmlns="http://www.w3.org/2000/svg">
<rect width="61" height="50.5" rx="6" fill="white"/>
<path d="M37.0005 41.2059L28.4569 25.5432L35.2063 14.2941L49.5593 41.2059H37.0005ZM22.6475 21.4706L33.4122 41.2059H11.8828L22.6475 21.4706ZM18.1622 17.8823C16.9727 17.8823 15.8318 17.4098 14.9906 16.5686C14.1495 15.7275 13.6769 14.5866 13.6769 13.397C13.6769 12.2075 14.1495 11.0666 14.9906 10.2255C15.8318 9.3843 16.9727 8.91174 18.1622 8.91174C19.3518 8.91174 20.4927 9.3843 21.3338 10.2255C22.175 11.0666 22.6475 12.2075 22.6475 13.397C22.6475 14.5866 22.175 15.7275 21.3338 16.5686C20.4927 17.4098 19.3518 17.8823 18.1622 17.8823Z" fill="black"/>
</svg>
