<svg width="27" height="27" viewBox="0 0 27 27" fill="none" xmlns="http://www.w3.org/2000/svg">
<g clip-path="url(#clip0_793_1134)">
<path d="M0 10.125H27V16.0312H0V10.125Z" fill="#E6E7E8"/>
<path d="M22.7812 3.79688H4.21875C1.42298 3.79688 0 5.87461 0 8.4375V10.125H27V8.4375C27 5.87461 25.577 3.79688 22.7812 3.79688Z" fill="#FF9933"/>
<path d="M0 17.7188C0 20.2816 1.42298 22.3594 4.21875 22.3594H22.7812C25.577 22.3594 27 20.2816 27 17.7188V16.0312H0V17.7188Z" fill="#128807"/>
<path fill-rule="evenodd" clip-rule="evenodd" d="M13.6312 10.3711C14.1702 10.3711 14.6972 10.531 15.1453 10.8305C15.5934 11.1301 15.9426 11.5559 16.1487 12.0539C16.3548 12.552 16.4085 13.1 16.303 13.6286C16.1975 14.1572 15.9376 14.6427 15.5562 15.0235C15.1748 15.4044 14.6889 15.6635 14.1601 15.7682C13.6314 15.8728 13.0834 15.8183 12.5857 15.6114C12.0879 15.4046 11.6627 15.0547 11.3638 14.6061C11.065 14.1575 10.9059 13.6304 10.9067 13.0913C10.908 12.3695 11.1955 11.6777 11.7063 11.1677C12.2171 10.6577 12.9094 10.3712 13.6312 10.3711ZM11.815 11.5502C11.8619 11.6034 11.8703 11.6603 11.8391 11.708C11.8259 11.73 11.8054 11.7467 11.7813 11.7553C11.7628 11.7622 11.7428 11.7645 11.7232 11.762C11.7036 11.7595 11.6849 11.7522 11.6686 11.7409C11.5953 11.8459 11.5308 11.9568 11.4759 12.0725C11.5396 12.1143 11.5606 12.1666 11.5396 12.2244C11.5283 12.2538 11.506 12.2777 11.4774 12.2909C11.4488 12.3041 11.4161 12.3057 11.3864 12.2953C11.356 12.356 11.289 12.6125 11.2881 12.6665C11.3161 12.6719 11.3412 12.687 11.359 12.7091C11.3778 12.7311 11.3875 12.7595 11.386 12.7884C11.378 12.8677 11.329 12.9015 11.2544 12.9045C11.2426 12.9808 11.2438 13.2365 11.2556 13.2867C11.3349 13.2951 11.3767 13.3297 11.3835 13.39C11.3927 13.455 11.3615 13.4972 11.2856 13.5267C11.3084 13.652 11.3409 13.7752 11.3835 13.8959C11.4132 13.8869 11.4451 13.8879 11.4742 13.8988C11.5024 13.911 11.5248 13.9321 11.5366 13.9612C11.5471 13.984 11.5493 14.0077 11.5438 14.0325C11.5398 14.051 11.5317 14.0684 11.5199 14.0832C11.5081 14.098 11.493 14.1098 11.4759 14.1178C11.5324 14.235 11.5948 14.3456 11.6686 14.4494C11.7345 14.4169 11.7918 14.4245 11.8306 14.4709C11.8477 14.4899 11.8575 14.5145 11.8581 14.5401C11.8594 14.559 11.8561 14.5779 11.8484 14.5953C11.8408 14.6126 11.829 14.6278 11.8142 14.6396C11.8986 14.7383 11.9884 14.8286 12.0863 14.9117C12.1416 14.8632 12.1989 14.8556 12.2483 14.8902C12.2707 14.9058 12.2863 14.9265 12.2934 14.9518C12.2986 14.9697 12.2997 14.9886 12.2966 15.007C12.2935 15.0254 12.2864 15.0428 12.2757 15.0581C12.3825 15.1315 12.4926 15.1948 12.6077 15.2497C12.6525 15.1868 12.7035 15.1657 12.7588 15.1868C12.7828 15.1954 12.8037 15.2112 12.8187 15.2319C12.8398 15.2657 12.8427 15.3028 12.8305 15.3425C12.952 15.3855 13.0743 15.4184 13.2009 15.4408C13.2258 15.3695 13.2688 15.3361 13.3262 15.3404C13.3528 15.3425 13.3768 15.3505 13.3979 15.3686C13.4274 15.3956 13.4414 15.4298 13.4388 15.472C13.5688 15.4813 13.6958 15.4821 13.8219 15.472C13.8312 15.3906 13.8637 15.3496 13.9291 15.3404C13.9539 15.3369 13.9792 15.342 14.0008 15.3547C14.0166 15.3636 14.0302 15.376 14.0405 15.3909C14.0509 15.4058 14.0578 15.4228 14.0607 15.4408C14.1881 15.4171 14.3117 15.3847 14.4311 15.342C14.4205 15.2623 14.4399 15.2146 14.4935 15.1898C14.5131 15.1814 14.5344 15.178 14.5555 15.18C14.5775 15.1817 14.5973 15.1885 14.6133 15.2028C14.6289 15.2159 14.642 15.2319 14.6572 15.2484C14.7722 15.1941 14.8825 15.1305 14.9871 15.0581C14.9441 14.9906 14.9694 14.9261 15.0044 14.8974C15.0166 14.8869 15.0308 14.879 15.0461 14.8741C15.0614 14.8691 15.0775 14.8673 15.0936 14.8687C15.1096 14.87 15.1252 14.8746 15.1394 14.8821C15.1537 14.8895 15.1663 14.8998 15.1765 14.9122C15.274 14.8286 15.3655 14.7379 15.4474 14.6405C15.3997 14.586 15.3904 14.5287 15.4254 14.4793C15.4396 14.4572 15.4614 14.441 15.4866 14.4338C15.5046 14.428 15.5237 14.4266 15.5423 14.4294C15.561 14.4323 15.5787 14.4394 15.5942 14.4502C15.668 14.3439 15.7321 14.2338 15.787 14.1182C15.7254 14.0768 15.703 14.0283 15.7216 13.9731C15.7283 13.9485 15.7432 13.9269 15.7638 13.9119C15.7802 13.9005 15.799 13.893 15.8188 13.89C15.8385 13.8871 15.8587 13.8888 15.8777 13.895C15.9051 13.8355 15.9735 13.5849 15.9773 13.5242C15.9481 13.5189 15.9217 13.5033 15.903 13.4803C15.8932 13.4689 15.8858 13.4556 15.8814 13.4412C15.877 13.4269 15.8756 13.4117 15.8773 13.3968C15.8789 13.3701 15.8899 13.3448 15.9085 13.3255C15.9212 13.3121 15.9367 13.3017 15.954 13.2952C15.9712 13.2886 15.9897 13.286 16.0081 13.2875C16.0186 13.1599 16.0186 13.0316 16.0081 12.904C15.9275 12.896 15.8891 12.8648 15.8785 12.8011C15.8738 12.777 15.8774 12.752 15.8887 12.7302C15.8974 12.7134 15.9098 12.6988 15.9251 12.6876C15.9404 12.6764 15.9581 12.6689 15.9768 12.6657C15.9547 12.5396 15.9218 12.4157 15.8785 12.2953C15.8005 12.3083 15.7524 12.2872 15.7267 12.2332C15.72 12.2188 15.7162 12.2032 15.7157 12.1873C15.7151 12.1714 15.7177 12.1555 15.7233 12.1407C15.7289 12.1258 15.7374 12.1122 15.7484 12.1006C15.7593 12.089 15.7724 12.0798 15.787 12.0734C15.7323 11.9574 15.6678 11.8463 15.5942 11.7413C15.5263 11.7738 15.471 11.7662 15.4322 11.7198C15.415 11.7002 15.4054 11.6751 15.4052 11.649C15.4044 11.6304 15.408 11.6119 15.4156 11.595C15.4232 11.5781 15.4347 11.5632 15.4491 11.5515C15.3658 11.454 15.2751 11.363 15.1778 11.2794C15.1196 11.3292 15.0631 11.3355 15.015 11.3009C14.9931 11.2863 14.9771 11.2645 14.9698 11.2393C14.9646 11.2216 14.9634 11.2029 14.9665 11.1847C14.9696 11.1665 14.9768 11.1493 14.9875 11.1343C14.8824 11.061 14.7713 10.9965 14.6555 10.9415C14.6121 11.0039 14.5631 11.0246 14.5079 11.006C14.4834 10.9982 14.462 10.9828 14.4467 10.9621C14.4356 10.9457 14.4285 10.9268 14.426 10.9071C14.4235 10.8874 14.4257 10.8674 14.4324 10.8487C14.312 10.8051 14.188 10.7722 14.0619 10.7504C14.0379 10.8187 13.9944 10.8541 13.9383 10.8508C13.9121 10.8499 13.8869 10.8404 13.8666 10.8238C13.8516 10.8111 13.8398 10.7949 13.8324 10.7767C13.825 10.7585 13.8221 10.7387 13.824 10.7191C13.6965 10.7083 13.5684 10.7084 13.4409 10.7196C13.4321 10.7955 13.3992 10.839 13.3431 10.8482C13.3178 10.8536 13.2915 10.8504 13.2684 10.839C13.2511 10.8304 13.2362 10.8179 13.2247 10.8024C13.2133 10.7869 13.2057 10.7689 13.2026 10.7499C13.0765 10.7729 12.9525 10.806 12.8318 10.8491C12.8453 10.9237 12.8242 10.9727 12.7727 10.9993C12.7503 11.0107 12.7267 11.0153 12.7006 11.0107C12.6809 11.008 12.6623 11.0002 12.6465 10.9882C12.6308 10.9761 12.6184 10.9602 12.6107 10.9419C12.5386 10.9689 12.3091 11.1018 12.2787 11.1351C12.3099 11.1975 12.3027 11.2528 12.2597 11.2925C12.2475 11.3032 12.2333 11.3114 12.218 11.3165C12.2026 11.3217 12.1863 11.3237 12.1701 11.3224C12.154 11.3212 12.1382 11.3167 12.1238 11.3092C12.1094 11.3017 12.0967 11.2915 12.0863 11.279C11.989 11.3622 11.8983 11.4529 11.815 11.5502Z" fill="#010088"/>
<path fill-rule="evenodd" clip-rule="evenodd" d="M14.7993 15.1147C14.7942 15.1093 14.7891 15.1055 14.7853 15.0996C14.5401 14.7246 14.2941 14.3501 14.0475 13.9761C14.042 13.9656 14.0357 13.955 14.0306 13.9432C13.9732 13.8095 13.9171 13.6757 13.8585 13.5424C13.8565 13.5355 13.8538 13.5289 13.8505 13.5226C13.8268 13.5314 13.8053 13.5416 13.78 13.5513L13.7885 13.5728C13.8412 13.7023 13.8918 13.8322 13.9454 13.9618C13.9597 13.9964 13.9656 14.0326 13.9732 14.0689C14.0146 14.2626 14.0534 14.457 14.0952 14.6511L14.2378 15.3442C14.2385 15.3459 14.2387 15.3477 14.2385 15.3495C14.2383 15.3513 14.2376 15.3529 14.2365 15.3544L14.2306 15.3396C14.115 14.9856 13.9964 14.6321 13.8804 14.2782C13.8572 14.209 13.8365 14.1406 13.8112 14.0714C13.7994 14.0369 13.7956 14.0014 13.7901 13.9656C13.7754 13.8651 13.7627 13.7639 13.7463 13.6635C13.7442 13.6394 13.7404 13.6158 13.737 13.5926C13.736 13.583 13.7344 13.5734 13.7323 13.5639C13.707 13.5665 13.6838 13.5698 13.6585 13.5728C13.6585 13.5829 13.6594 13.5935 13.6602 13.604C13.675 13.7276 13.6876 13.8516 13.7053 13.9748C13.7146 14.0423 13.71 14.1086 13.7062 14.1761C13.7037 14.233 13.6999 14.29 13.6973 14.3474C13.6897 14.4629 13.6838 14.5781 13.6758 14.6933L13.6632 14.9312C13.656 15.0662 13.6475 15.2008 13.6404 15.335C13.637 15.3729 13.6362 15.4117 13.6324 15.4489L13.6222 15.321L13.6092 15.0443L13.594 14.7975C13.5898 14.7131 13.5843 14.6292 13.5796 14.5448C13.5758 14.4895 13.5737 14.4343 13.5703 14.3798C13.5657 14.2925 13.5602 14.2052 13.556 14.1187C13.5518 14.0726 13.553 14.0262 13.5594 13.9803C13.5682 13.9179 13.575 13.8542 13.5826 13.7909C13.591 13.7285 13.5982 13.6656 13.6058 13.604C13.6066 13.5943 13.6066 13.5842 13.6079 13.5728L13.5341 13.5631C13.532 13.58 13.5282 13.5964 13.5252 13.6133C13.5077 13.7422 13.4897 13.871 13.4712 13.9997C13.4661 14.0499 13.4463 14.0963 13.4294 14.1432C13.2995 14.5389 13.1691 14.935 13.0375 15.3303C13.0346 15.3375 13.0333 15.3442 13.0278 15.351C13.0278 15.3459 13.0278 15.3421 13.0299 15.3375C13.0843 15.0709 13.1392 14.8038 13.1957 14.5372C13.232 14.36 13.2695 14.1832 13.3054 14.0065L13.3155 13.9774C13.37 13.8436 13.4223 13.7086 13.478 13.5749C13.4799 13.567 13.4827 13.5594 13.4864 13.5521C13.4632 13.5422 13.4398 13.5325 13.4164 13.523C13.4134 13.5306 13.4088 13.5369 13.4062 13.5445C13.348 13.6787 13.2911 13.8133 13.2328 13.9474C13.2292 13.9575 13.2247 13.9672 13.2193 13.9765C12.9704 14.3536 12.7222 14.7312 12.4747 15.1093C12.4713 15.115 12.4669 15.12 12.4617 15.124C12.4638 15.1173 12.4676 15.1118 12.4701 15.1059L13.0801 13.8964C13.0854 13.8854 13.0919 13.8751 13.0995 13.8656L13.3603 13.5158C13.3657 13.5099 13.3691 13.5044 13.3742 13.4981C13.3527 13.4825 13.3354 13.4682 13.3138 13.4517C13.3092 13.4572 13.305 13.4618 13.3012 13.4673C13.2101 13.5816 13.1202 13.6968 13.0312 13.8107C13.0211 13.8213 13.0118 13.8322 13.0004 13.8419C12.668 14.1394 12.3355 14.4351 12.0018 14.7329C11.9951 14.7384 11.9883 14.7443 11.9799 14.7481C11.9837 14.7443 11.9858 14.7397 11.9883 14.7367C12.2621 14.4309 12.5338 14.1254 12.8063 13.8196C12.8219 13.8027 12.8375 13.7858 12.8523 13.7677C12.8835 13.7314 12.9185 13.6994 12.9565 13.6707L13.2594 13.4323C13.2662 13.4272 13.2712 13.4218 13.2788 13.4167C13.2639 13.3965 13.2484 13.3766 13.2324 13.3572C13.2257 13.3614 13.2202 13.3656 13.2139 13.3703C13.0978 13.4572 12.9814 13.5433 12.8654 13.6306C12.8524 13.6404 12.8386 13.649 12.824 13.6563C12.4279 13.8563 12.0297 14.0563 11.6327 14.2562C11.6251 14.2596 11.6179 14.2638 11.609 14.2638L11.6251 14.2524L12.3659 13.7673C12.495 13.6825 12.6245 13.5977 12.7528 13.5125C12.7637 13.5061 12.7751 13.5006 12.7848 13.4956C12.9194 13.4386 13.0535 13.3813 13.1869 13.3239C13.1932 13.3214 13.1995 13.3188 13.2071 13.315L13.1788 13.2454C13.1708 13.2475 13.1658 13.2496 13.1594 13.2517C13.0228 13.3062 12.8873 13.3614 12.7498 13.4154C12.7215 13.426 12.6907 13.431 12.6608 13.4374L11.739 13.6289C11.623 13.6538 11.5048 13.6783 11.3884 13.7023C11.3837 13.7034 11.3788 13.7028 11.3745 13.7006C11.4065 13.6905 11.4386 13.6791 11.4702 13.6686C11.8685 13.5374 12.2663 13.4066 12.6633 13.2745C12.6945 13.264 12.7279 13.261 12.7595 13.256C12.8878 13.2382 13.0156 13.2197 13.1426 13.2015C13.1504 13.2002 13.1581 13.1985 13.1658 13.1965C13.1632 13.172 13.1594 13.1475 13.1573 13.1222L13.0957 13.129L12.8409 13.1598C12.7933 13.1661 12.746 13.1712 12.6992 13.1771C12.6878 13.1783 12.6768 13.1788 12.6658 13.1783L12.3975 13.1627L12.2389 13.1539L11.9655 13.1378L11.5669 13.1159C11.4707 13.1108 11.377 13.1045 11.2812 13.0978C11.2964 13.0965 11.3133 13.094 11.3298 13.094L11.6567 13.0754L12.0887 13.0509L12.4465 13.0307L12.6709 13.0172C12.6798 13.0168 12.6903 13.018 12.6992 13.0189L12.9565 13.0497L13.1388 13.0716H13.1573C13.1594 13.0476 13.1632 13.0248 13.1658 12.9986C13.1502 12.9952 13.1324 12.9927 13.1168 12.9898C13.0042 12.9741 12.8924 12.9577 12.7797 12.9412C12.7564 12.9386 12.733 12.9355 12.7097 12.932C12.6968 12.9302 12.6841 12.9272 12.6718 12.9231C12.3364 12.813 12.0031 12.702 11.6681 12.5919C11.5749 12.5614 11.4818 12.5304 11.3888 12.4991C11.3808 12.497 11.3732 12.4934 11.3665 12.4886L11.4251 12.5004L12.141 12.6493C12.3326 12.6894 12.527 12.729 12.7186 12.7695C12.7301 12.7721 12.7414 12.7756 12.7523 12.7801C12.8873 12.8332 13.0211 12.8881 13.1573 12.9421L13.1776 12.9501C13.1869 12.9269 13.197 12.9045 13.2071 12.8805C13.2002 12.8764 13.193 12.8729 13.1856 12.8699C13.0514 12.8134 12.9177 12.7556 12.784 12.6978C12.7735 12.6934 12.7633 12.6882 12.7536 12.6822C12.3752 12.4346 11.9984 12.1857 11.6196 11.9376C11.6146 11.9348 11.6106 11.9305 11.6082 11.9254L11.6234 11.9338C12.0005 12.1236 12.3781 12.3135 12.7561 12.5029C12.8186 12.5341 12.8793 12.5717 12.935 12.6143C13.027 12.6856 13.1206 12.7539 13.2143 12.824C13.2206 12.8286 13.2261 12.8328 13.2328 12.837L13.2792 12.7784L13.2628 12.7641L12.9198 12.4945C12.908 12.4852 12.8987 12.4755 12.8886 12.4654C12.5899 12.1308 12.2908 11.7959 11.993 11.4613C11.9886 11.4579 11.9853 11.4533 11.9833 11.4482C11.9921 11.4491 11.9955 11.455 11.9993 11.4588C12.1803 11.6191 12.3596 11.7794 12.5393 11.9397L13.0042 12.354C13.0126 12.3616 13.0206 12.3709 13.0282 12.3793L13.2944 12.7176C13.3012 12.7252 13.3063 12.7333 13.3138 12.7434L13.375 12.6966C13.3712 12.6906 13.3662 12.686 13.3632 12.6805C13.2763 12.5645 13.1898 12.4481 13.1021 12.3325C13.093 12.3189 13.0847 12.3048 13.0772 12.2903C12.8747 11.8916 12.6739 11.4913 12.4726 11.0922C12.4688 11.0846 12.465 11.0787 12.4642 11.0706C12.468 11.0749 12.4718 11.0787 12.4743 11.0825L12.9055 11.7414L13.2105 12.2055C13.221 12.2232 13.2328 12.2418 13.2396 12.2612C13.2965 12.3911 13.3514 12.5215 13.4067 12.6514C13.4105 12.6573 13.413 12.6636 13.4168 12.6712L13.4868 12.6421L13.4792 12.6244C13.4265 12.4928 13.375 12.3612 13.3214 12.2304C13.3067 12.1971 13.3012 12.1625 13.294 12.1279C13.248 11.9081 13.2037 11.6879 13.1577 11.4676C13.1126 11.2559 13.0696 11.0458 13.0253 10.8331C13.0244 10.8319 13.0253 10.8302 13.027 10.826L13.0641 10.9386C13.1966 11.3364 13.3278 11.7351 13.4577 12.1338C13.4687 12.165 13.4725 12.1992 13.4771 12.2316C13.4927 12.3422 13.5083 12.4536 13.526 12.5649C13.529 12.586 13.5303 12.6071 13.5345 12.6303L13.6079 12.621V12.5932C13.5973 12.505 13.586 12.4164 13.5758 12.3287C13.5695 12.2772 13.5649 12.227 13.5577 12.1768C13.5535 12.143 13.5535 12.1089 13.5577 12.0751C13.5606 12.0178 13.5649 11.9608 13.5674 11.9039L13.5881 11.56C13.5919 11.4984 13.5931 11.436 13.5969 11.3744C13.6024 11.2942 13.6066 11.2128 13.6113 11.1322C13.6151 11.0732 13.618 11.0137 13.6205 10.9551C13.6239 10.8854 13.6294 10.8163 13.6353 10.7471C13.637 10.7661 13.6378 10.7855 13.6387 10.8057C13.6446 10.8905 13.6488 10.9753 13.6539 11.0605L13.6758 11.447L13.6889 11.6638C13.6956 11.7891 13.7015 11.9148 13.7087 12.0401C13.7108 12.0591 13.7117 12.0768 13.7129 12.0954C13.7184 12.1443 13.7087 12.1928 13.7045 12.2414L13.6775 12.4624C13.6733 12.5042 13.667 12.5459 13.6619 12.5881C13.661 12.5983 13.661 12.6092 13.6581 12.6215C13.6843 12.6253 13.7079 12.6278 13.734 12.6312C13.7378 12.613 13.7395 12.5961 13.7425 12.5784C13.7627 12.4413 13.7821 12.3042 13.8015 12.1663C13.8032 12.1561 13.8074 12.1456 13.81 12.135C13.9475 11.7224 14.0825 11.3094 14.2192 10.896C14.2259 10.877 14.231 10.8589 14.2415 10.8407C14.2404 10.8504 14.2389 10.8599 14.2369 10.8694C14.1753 11.1681 14.1112 11.4659 14.05 11.7638C14.0226 11.9034 13.9935 12.0435 13.9644 12.1831C13.9623 12.1947 13.9586 12.2059 13.9534 12.2165L13.7906 12.6236C13.7876 12.6295 13.7855 12.6358 13.7825 12.6434C13.8079 12.6531 13.8285 12.6628 13.853 12.6725L13.8627 12.6523L14.0327 12.2527C14.0395 12.2392 14.0445 12.2262 14.0534 12.2152L14.7896 11.0922C14.7942 11.0863 14.798 11.0804 14.8052 11.0761C14.8022 11.082 14.8001 11.0879 14.7963 11.0939L14.1909 12.2962C14.1846 12.3076 14.1783 12.319 14.1707 12.3291C14.0829 12.446 13.9947 12.5628 13.9083 12.6788C13.9041 12.6855 13.8994 12.6918 13.8943 12.6978L13.9543 12.7446C13.959 12.7396 13.9634 12.7343 13.9673 12.7286C14.0568 12.6147 14.1458 12.5004 14.2365 12.3865C14.2465 12.3737 14.2576 12.3618 14.2698 12.351C14.6031 12.0532 14.9368 11.7558 15.2705 11.4588C15.276 11.4541 15.2798 11.4495 15.2886 11.447L15.2777 11.4605C15.1414 11.6144 15.0051 11.7676 14.8668 11.9207C14.7022 12.1042 14.5398 12.2873 14.3765 12.4709C14.3681 12.4801 14.358 12.4881 14.3491 12.4957L14.0061 12.7653L13.9893 12.7788C14.0053 12.7991 14.0196 12.8185 14.0365 12.8387L14.0547 12.8252L14.4061 12.562C14.415 12.5556 14.4243 12.5497 14.4339 12.5443C14.8389 12.3409 15.2414 12.1384 15.6439 11.9351C15.6506 11.9321 15.6561 11.9296 15.6633 11.9296C15.6447 11.9418 15.6274 11.9536 15.6088 11.965C15.2448 12.2042 14.8807 12.4434 14.5153 12.6826C14.5052 12.6885 14.4959 12.6944 14.485 12.6991C14.3504 12.7573 14.2145 12.8147 14.0812 12.8725L14.0597 12.8809C14.0711 12.9045 14.0791 12.9269 14.0892 12.9505L14.1087 12.9442C14.2441 12.8906 14.3787 12.8345 14.5153 12.7826C14.5491 12.7691 14.5862 12.7632 14.6229 12.7556L15.2443 12.6265C15.4376 12.5869 15.6291 12.5464 15.8227 12.5063C15.8405 12.5025 15.8569 12.4987 15.8755 12.4953C15.8801 12.4953 15.8843 12.4945 15.8911 12.497L15.832 12.5164C15.4198 12.6527 15.0089 12.7885 14.5968 12.9231C14.5655 12.9341 14.531 12.937 14.4985 12.9421C14.4061 12.956 14.315 12.9682 14.2251 12.9813C14.1922 12.986 14.1597 12.991 14.1268 12.9952L14.1028 12.9995C14.1053 13.0244 14.1091 13.0476 14.1108 13.0746L14.1745 13.0678L14.4023 13.0408C14.4592 13.0336 14.5187 13.0256 14.5782 13.0201C14.6048 13.018 14.6318 13.0206 14.6592 13.0218C14.717 13.0244 14.7748 13.0294 14.8351 13.0319L15.176 13.0522C15.2266 13.0551 15.2773 13.0573 15.3296 13.0606L15.6772 13.0805C15.7595 13.0855 15.8442 13.0893 15.9261 13.0944C15.9464 13.0955 15.9667 13.0974 15.9868 13.0999L15.9253 13.1049L15.67 13.1189L15.354 13.1374L15.1157 13.1501C15.006 13.1568 14.8942 13.1631 14.7837 13.1703C14.7229 13.1729 14.6605 13.1788 14.5993 13.1792C14.5643 13.18 14.5276 13.1733 14.4934 13.1695C14.4184 13.1607 14.3435 13.1517 14.2685 13.1425L14.1247 13.1252H14.1108C14.1091 13.1496 14.1053 13.1737 14.1028 13.1994C14.2515 13.2214 14.4002 13.243 14.5491 13.264C14.593 13.2695 14.6314 13.2868 14.6727 13.2998L15.8725 13.696C15.8803 13.6976 15.8876 13.7009 15.894 13.7057C15.8839 13.704 15.8742 13.7023 15.8641 13.7015L14.822 13.4842L14.547 13.4268C14.5381 13.4243 14.5263 13.4209 14.5166 13.4163C14.3812 13.3627 14.2453 13.3079 14.1091 13.2534L14.0909 13.2471C14.0811 13.2702 14.0708 13.2931 14.0601 13.3159L14.0825 13.3264C14.2171 13.3838 14.3508 13.4407 14.4845 13.4985C14.4951 13.5032 14.5056 13.5087 14.5166 13.5163L15.6396 14.252C15.6451 14.2562 15.6523 14.2613 15.6569 14.2693C15.6515 14.2659 15.6451 14.2638 15.6405 14.2604L15.0553 13.9668C14.8512 13.863 14.6453 13.7601 14.439 13.6563C14.4258 13.6498 14.4135 13.6417 14.4023 13.6323C14.2863 13.5458 14.169 13.4589 14.053 13.3716C14.0478 13.3672 14.0423 13.3632 14.0365 13.3597C14.0205 13.3791 14.0061 13.3981 13.9893 13.4184L14.0053 13.431C14.1184 13.5213 14.2335 13.6116 14.347 13.7015C14.3599 13.7107 14.3717 13.7215 14.382 13.7335L15.276 14.7338C15.2796 14.7388 15.2825 14.7444 15.2844 14.7502C15.2798 14.7452 15.2735 14.7418 15.2688 14.738C14.9334 14.4381 14.5976 14.1398 14.2614 13.8403C14.2537 13.8335 14.2469 13.8258 14.2411 13.8175L13.9678 13.469C13.964 13.4635 13.9593 13.4585 13.9547 13.453C13.9353 13.469 13.9163 13.4834 13.8969 13.5002C13.8986 13.5053 13.9024 13.5108 13.9057 13.5158L14.1711 13.8694C14.1787 13.8797 14.1854 13.8905 14.1913 13.9019C14.3926 14.3009 14.5934 14.7009 14.7942 15.1004C14.7975 15.1058 14.7996 15.1118 14.8005 15.1181H14.7993V15.1147Z" fill="#010088"/>
<path fill-rule="evenodd" clip-rule="evenodd" d="M14.7949 15.1147C14.7991 15.119 14.8017 15.1236 14.805 15.1274C14.8029 15.1282 14.8029 15.1295 14.8004 15.1299C14.7996 15.124 14.7966 15.1202 14.7958 15.1147H14.7949Z" fill="#010088"/>
</g>
<defs>
<clipPath id="clip0_793_1134">
<rect width="27" height="27" fill="white"/>
</clipPath>
</defs>
</svg>
