<svg width="61" height="56" viewBox="0 0 61 56" fill="none" xmlns="http://www.w3.org/2000/svg">
<path d="M22.875 38.2773L44.225 24.558L22.875 10.8387V38.2773ZM18.3 55.0454V48.9479H6.1C4.4225 48.9479 2.98697 48.3514 1.7934 47.1583C0.5978 45.9632 0 44.5273 0 42.8505V6.26557C0 4.58876 0.5978 3.15281 1.7934 1.9577C2.98697 0.764627 4.4225 0.168091 6.1 0.168091H54.9C56.5775 0.168091 58.0141 0.764627 59.2097 1.9577C60.4032 3.15281 61 4.58876 61 6.26557V42.8505C61 44.5273 60.4032 45.9632 59.2097 47.1583C58.0141 48.3514 56.5775 48.9479 54.9 48.9479H42.7V55.0454H18.3Z" fill="white"/>
</svg>
