<svg width="16" height="16" viewBox="0 0 16 16" fill="none" xmlns="http://www.w3.org/2000/svg">
<path d="M6.965 10.8764C6.70487 11.0455 6.43823 11.0585 6.1651 10.9155C5.89196 10.7724 5.75539 10.5448 5.75539 10.2326V6.05753C5.75539 5.74537 5.89196 5.51776 6.1651 5.37469C6.43823 5.23162 6.70487 5.24462 6.965 5.41371L10.2036 7.48174C10.3207 7.55978 10.4083 7.65733 10.4666 7.77439C10.5254 7.89145 10.5548 8.01501 10.5548 8.14508C10.5548 8.27514 10.5254 8.39871 10.4666 8.51576C10.4083 8.63282 10.3207 8.73037 10.2036 8.80841L6.965 10.8764ZM6.02853 15.7734C5.5733 15.6694 5.13446 15.5328 4.71201 15.3637C4.28903 15.1946 3.87595 14.98 3.47274 14.7199C3.26464 14.5898 3.15096 14.4077 3.13171 14.1736C3.11194 13.9395 3.1931 13.7314 3.3752 13.5493C3.50526 13.4192 3.67096 13.3446 3.8723 13.3253C4.07417 13.3056 4.25964 13.3477 4.42872 13.4517C4.71487 13.6338 5.0109 13.7865 5.31681 13.9098C5.6222 14.0337 5.93748 14.1346 6.26264 14.2126C6.44474 14.2647 6.59769 14.3656 6.72152 14.5154C6.84482 14.6647 6.90647 14.8304 6.90647 15.0125C6.90647 15.2727 6.8188 15.4774 6.64348 15.6267C6.46763 15.7765 6.26265 15.8254 6.02853 15.7734ZM2.26314 12.4372C2.08105 12.6193 1.87632 12.7005 1.64897 12.6807C1.42109 12.6615 1.24212 12.5543 1.11206 12.3592C0.851928 11.982 0.634198 11.5822 0.45887 11.1597C0.283022 10.7368 0.143072 10.2912 0.0390197 9.82292C-0.026013 9.5888 0.0161281 9.3807 0.165443 9.19861C0.315278 9.01652 0.520261 8.92547 0.780392 8.92547C0.962483 8.92547 1.13157 8.9905 1.28765 9.12057C1.44373 9.25063 1.54778 9.40671 1.5998 9.5888C1.67784 9.92697 1.7819 10.2456 1.91196 10.5448C2.04203 10.8439 2.1916 11.1366 2.36069 11.4227C2.46474 11.5788 2.50688 11.7544 2.48711 11.9495C2.46786 12.1446 2.3932 12.3072 2.26314 12.4372ZM0.799902 7.36469C0.539771 7.36469 0.331667 7.27364 0.175588 7.09155C0.0195098 6.90946 -0.0325163 6.70135 0.0195098 6.46724C0.123562 6.01201 0.266634 5.5664 0.448725 5.13042C0.630817 4.69497 0.851928 4.28864 1.11206 3.91145C1.24212 3.71635 1.42109 3.6123 1.64897 3.5993C1.87632 3.58629 2.08105 3.67083 2.26314 3.85292C2.3932 3.98299 2.46786 4.14557 2.48711 4.34067C2.50688 4.53577 2.46474 4.71135 2.36069 4.86743C2.1916 5.14057 2.04203 5.42983 1.91196 5.73523C1.7819 6.04114 1.67784 6.36318 1.5998 6.70135C1.54778 6.88344 1.44711 7.03952 1.29779 7.16959C1.14796 7.29965 0.981993 7.36469 0.799902 7.36469ZM9.32568 15.7539C9.09157 15.8059 8.88996 15.7604 8.72088 15.6173C8.55179 15.4743 8.46725 15.2792 8.46725 15.032C8.46725 14.8499 8.52916 14.6809 8.65299 14.5248C8.77629 14.3687 8.92898 14.2647 9.11108 14.2126C10.5028 13.8484 11.6473 13.1105 12.5448 11.9987C13.4423 10.8863 13.891 9.60181 13.891 8.14508C13.891 6.68835 13.4423 5.3942 12.5448 4.26263C11.6473 3.13106 10.5028 2.39619 9.11108 2.05802C8.92898 2.006 8.77629 1.90506 8.65299 1.75523C8.52916 1.60591 8.46725 1.44021 8.46725 1.25812C8.46725 1.011 8.55518 0.812516 8.73102 0.662681C8.90635 0.513366 9.11108 0.464721 9.34519 0.516747C11.1271 0.906943 12.5903 1.8109 13.7349 3.22861C14.8795 4.64632 15.4518 6.28514 15.4518 8.14508C15.4518 9.99201 14.8764 11.6178 13.7255 13.0225C12.5742 14.4272 11.1076 15.3377 9.32568 15.7539ZM4.37019 2.85792C4.20111 2.96198 4.0224 3.00099 3.83407 2.97498C3.64521 2.94897 3.48575 2.87093 3.35569 2.74086C3.17359 2.55877 3.09243 2.35067 3.1122 2.11655C3.13145 1.88243 3.24513 1.70034 3.45323 1.57028C3.85644 1.31015 4.27265 1.09554 4.70186 0.926453C5.13108 0.757368 5.5733 0.620799 6.02853 0.516747C6.26265 0.464721 6.46763 0.513366 6.64348 0.662681C6.8188 0.812516 6.90647 1.011 6.90647 1.25812C6.90647 1.44021 6.84144 1.60591 6.71137 1.75523C6.58131 1.90506 6.42523 2.006 6.24314 2.05802C5.91797 2.13606 5.59931 2.24323 5.28716 2.37954C4.975 2.51637 4.66934 2.67583 4.37019 2.85792Z" fill="white"/>
</svg>
