<svg width="61" height="51" viewBox="0 0 61 51" fill="none" xmlns="http://www.w3.org/2000/svg">
<path d="M58.2273 44.5125H2.77273C1.24773 44.5125 0 45.7598 0 47.2841C0 48.8085 1.24773 50.0557 2.77273 50.0557H58.2273C59.7523 50.0557 61 48.8085 61 47.2841C61 45.7598 59.7523 44.5125 58.2273 44.5125ZM8.31818 41.741H52.6818C55.7318 41.741 58.1995 39.2465 58.1995 36.1978L58.2273 5.7104C58.2273 2.66166 55.7318 0.167236 52.6818 0.167236H8.31818C5.26818 0.167236 2.77273 2.66166 2.77273 5.7104V36.1978C2.77273 39.2465 5.26818 41.741 8.31818 41.741ZM21.045 14.1637C21.8438 12.9742 22.8964 11.9765 24.1272 11.2425C25.358 10.5084 26.7362 10.0561 28.1628 9.9183C29.5894 9.78047 31.0288 9.96048 32.3774 10.4454C33.726 10.9302 34.9504 11.708 35.9623 12.7225C39.2341 15.993 39.6777 21.0372 37.2655 24.8066L41.5909 29.1026C42.395 29.9063 42.395 31.2367 41.5909 32.0404C40.7868 32.8442 39.4559 32.8442 38.6518 32.0404L34.3541 27.7445C30.0009 30.5161 23.9286 29.5183 20.8509 24.668C18.8268 21.5084 18.9377 17.2679 21.045 14.1637Z" fill="white"/>
<path d="M29.1138 25.1115C32.1765 25.1115 34.6593 22.6297 34.6593 19.5683C34.6593 16.5069 32.1765 14.0251 29.1138 14.0251C26.0511 14.0251 23.5684 16.5069 23.5684 19.5683C23.5684 22.6297 26.0511 25.1115 29.1138 25.1115Z" fill="white"/>
</svg>
